<svg xmlns="http://www.w3.org/2000/svg" viewBox="0 0 211.88 52.29"><defs><style>.a{isolation:isolate;}.b{fill:#222;}</style></defs><g class="a"><g class="a"><path class="b" d="M66.17,18.24V45.59H57.62V18.24H50.07V10.59H73.72v7.65Z" transform="translate(-2.24 -2.65)"/><path class="b" d="M82.07,34.64C82.27,37,84.52,39,87.62,39a6.77,6.77,0,0,0,5.5-2.8l5.5,4.25c-.75,1.55-4.35,5.8-11.15,5.8-8.65,0-14-6-14-13.7s5.2-13.85,12.9-13.85c8.35,0,12.9,5.35,12.9,14.3,0,.5,0,1,0,1.65Zm.25-5.3h8.5a4,4,0,0,0-4.25-3.9A4.15,4.15,0,0,0,82.32,29.34Z" transform="translate(-2.24 -2.65)"/><path class="b" d="M109.92,34.64c.2,2.35,2.45,4.35,5.55,4.35a6.77,6.77,0,0,0,5.5-2.8l5.5,4.25c-.75,1.55-4.35,5.8-11.15,5.8-8.65,0-13.95-6-13.95-13.7s5.2-13.85,12.9-13.85c8.35,0,12.9,5.35,12.9,14.3,0,.5,0,1,0,1.65Zm.25-5.3h8.5a4,4,0,0,0-4.25-3.9A4.15,4.15,0,0,0,110.17,29.34Z" transform="translate(-2.24 -2.65)"/><path class="b" d="M138.32,21.39a9.88,9.88,0,0,1,7.1-2.7c7.55,0,12.85,5.7,12.85,13.75s-4.8,13.8-12.4,13.8a9.7,9.7,0,0,1-7-2.65V54.94h-8.35V19.34h7.8Zm6,17.5c3.4,0,5.65-2.65,5.65-6.5s-2.3-6.4-5.65-6.4c-3.6,0-5.65,2.9-5.65,6.4C138.62,36.54,141,38.89,144.27,38.89Z" transform="translate(-2.24 -2.65)"/><path class="b" d="M169,34.64c.2,2.35,2.45,4.35,5.55,4.35a6.77,6.77,0,0,0,5.5-2.8l5.5,4.25c-.75,1.55-4.35,5.8-11.15,5.8-8.65,0-13.95-6-13.95-13.7s5.2-13.85,12.9-13.85c8.35,0,12.9,5.35,12.9,14.3,0,.5,0,1-.05,1.65Zm.25-5.3h8.5a4,4,0,0,0-4.25-3.9A4.15,4.15,0,0,0,169.27,29.34Z" transform="translate(-2.24 -2.65)"/><path class="b" d="M196.87,34.64c.2,2.35,2.45,4.35,5.55,4.35a6.77,6.77,0,0,0,5.5-2.8l5.5,4.25c-.75,1.55-4.35,5.8-11.15,5.8-8.65,0-14-6-14-13.7s5.2-13.85,12.9-13.85c8.35,0,12.9,5.35,12.9,14.3,0,.5,0,1-.05,1.65Zm.25-5.3h8.5a4,4,0,0,0-4.25-3.9A4.15,4.15,0,0,0,197.12,29.34Z" transform="translate(-2.24 -2.65)"/></g></g><path class="b" d="M22.55,13.61,28,4.23,25.28,2.65l-3,5v-5H19.17V7.92L16.11,2.65,13.37,4.23l5.49,9.38-16,27.3a4.05,4.05,0,0,0,0,4.22,4.19,4.19,0,0,0,3.64,2.11H34.93a4.13,4.13,0,0,0,3.64-2.11,4.29,4.29,0,0,0,0-4.22ZM20.7,16.72l4.11,7H16.59ZM14.53,44.08l4.75-10.8a1.53,1.53,0,0,1,2-.83,1.5,1.5,0,0,1,.83.83l4.75,10.8Zm21.3-.53a1.08,1.08,0,0,1-.9.53H30.34L25.07,32a4.72,4.72,0,0,0-4.32-2.85A4.66,4.66,0,0,0,16.43,32L11.16,44.08H6.47a1,1,0,0,1-.9-.53,1.14,1.14,0,0,1,0-1l9.17-15.66H26.65L35.82,42.5a.92.92,0,0,1,0,1Z" transform="translate(-2.24 -2.65)"/></svg>